{"title":"The Mortal Instruments City of Bones (2013) NEW SOURCE CAM XViD","uid":8924690,"size":1518097074,"categoryP":"video","categoryS":"movies","magnet":"?xt=urn:btih:07208cfc39da6c92630c08977128b1b1978b9b65&amp;dn=The+Mortal+Instruments+City+of+Bones+%282013%29+NEW+SOURCE+CAM+XViD+&amp;tr=udp%3A%2F%2Ftracker.openbittorrent.com%3A80&amp;tr=udp%3A%2F%2Fopen.demonii.com%3A1337&amp;tr=udp%3A%2F%2Ftracker.coppersurfer.tk%3A6969&amp;tr=udp%3A%2F%2Fexodus.desync.com%3A6969","seeders":1,"leechers":0,"uploader":"scenetime55","files":5,"time":1379336463,"description":"JOIN NOW SING UP IT&quot;S OPEN\n\nSceneTime,,Com\n SceneTime,,Com\n\n                                                         \n- Latest Releases\n- Super Fast Speeds\n- Good Community\n- Competitions with prizes (yay)\n- Love for the Scene\n\n\nCredit to EVERYONE for sharing and seeding back\nespecially to SceneTime where i get all my\ndownloads.\t\n\n\n\nINFO\n\n\n\n\nFormat                                   : AVI\nFormat/Info                              : Audio Video Interleave\nFile size                                : 1.40 GiB\nDuration                                 : 2h 2mn\nOverall bit rate                         : 1 625 Kbps\nWriting application                      : VirtualDubMod 1.5.10.2 (build 2540/release)\nWriting library                          : VirtualDubMod build 2540/release\n\nVideo\nID                                       : 0\nFormat                                   : MPEG-4 Visual\nFormat profile                           : Advanced Simple@L5\nFormat settings, BVOP                    : 2\nFormat settings, QPel                    : No\nFormat settings, GMC                     : No warppoints\nFormat settings, Matrix                  : Default (H.263)\nMuxing mode                              : Packed bitstream\nCodec ID                                 : XVID\nCodec ID/Hint                            : XviD\nDuration                                 : 2h 2mn\nBit rate                                 : 1 487 Kbps\nWidth                                    : 692 pixels\nHeight                                   : 304 pixels\nDisplay aspect ratio                     : 2.25:1\nFrame rate                               : 23.976 fps\nColor space                              : YUV\nChroma subsampling                       : 4:2:0\nBit depth                                : 8 bits\nScan type                                : Progressive\nCompression mode                         : Lossy\nBits/(Pixel*Frame)                       : 0.295\nStream size                              : 1.28 GiB (92%)\nWriting library                          : XviD 64\n\nAudio\nID                                       : 1\nFormat                                   : MPEG Audio\nFormat version                           : Version 1\nFormat profile                           : Layer 3\nMode                                     : Joint stereo\nMode extension                           : MS Stereo\nCodec ID                                 : 55\nCodec ID/Hint                            : MP3\nDuration                                 : 2h 2mn\nBit rate mode                            : Constant\nBit rate                                 : 128 Kbps\nChannel(s)                               : 2 channels\nSampling rate                            : 48.0 KHz\nCompression mode                         : Lossy\nStream size                              : 113 MiB (8%)\nAlignment                                : Aligned on interleaves\nInterleave, duration                     : 42 ms (1.00 video frame)\nInterleave, preload duration             : 504 ms\n\n\nNOTE\n\n\n\nSource Used    \n\n\nVideo .............Cazadores.De.Sombras.Ciudad.De.Hueso.2013.XviD.CAM.Latino.SBT / Thanks\n\nAudio ..............KiNGofJeFFs / Thanks :bow:\n\n\n\n\nHeres the faults with this vid\n\n\nPerspective was shot to bits it was like a damn banana its still not right but ive pulled the vid as much as i could or would \n\nFrame rate is abit iffy in parts seems to be abit jerky it was variable so i made it constant and its made it better but not perfect\n\n\nDefinetly a more than watchable copy though,way better than whats out \n\nHardest sync i ever did if it drops dont moan i dont care","torrent":{"xt":"urn:btih:07208cfc39da6c92630c08977128b1b1978b9b65","amp;dn":"The+Mortal+Instruments+City+of+Bones+%282013%29+NEW+SOURCE+CAM+XViD+","amp;tr":["udp%3A%2F%2Ftracker.openbittorrent.com%3A80","udp%3A%2F%2Fopen.demonii.com%3A1337","udp%3A%2F%2Ftracker.coppersurfer.tk%3A6969","udp%3A%2F%2Fexodus.desync.com%3A6969"],"infoHash":"07208cfc39da6c92630c08977128b1b1978b9b65","infoHashBuffer":{"type":"Buffer","data":[7,32,140,252,57,218,108,146,99,12,8,151,113,40,177,177,151,139,155,101]},"announce":[],"urlList":[]}}